<svg xmlns="http://www.w3.org/2000/svg" viewBox="0 0 1080 1440" width="1080" height="1440">
  <rect width="1080" height="1440" fill="#F3EEE4"/>
  <text x="540" y="78" text-anchor="middle" fill="#1C1915" font-family="Georgia, serif" font-size="40">NFCTap</text>
  <text x="540" y="118" text-anchor="middle" fill="#7A6A52" font-family="Georgia, serif" font-size="20">Instagram · negro + amarillo</text>
  <rect x="330.0" y="200.0" width="420.0" height="475.3" rx="33.2" fill="#141416"/>
  <path d="M 400.5,260.8 L 394.3,260.8 L 394.3,216.6 L 400.5,216.6 Z" fill="#E2B43A" fill-rule="evenodd"/> <path d="M 418.1,231.2 L 418.2,231.5 L 418.2,231.8 L 418.2,232.1 L 418.3,232.4 L 418.3,232.7 L 418.3,233.0 L 418.3,233.4 L 418.3,233.7 L 418.3,234.1 L 418.4,234.4 L 418.4,234.7 L 418.4,235.0 L 418.4,235.3 L 418.4,235.6 L 418.4,235.8 L 418.4,236.1 L 418.6,236.1 L 418.7,235.8 L 418.9,235.5 L 419.1,235.2 L 419.2,234.9 L 419.4,234.6 L 419.7,234.4 L 419.9,234.1 L 420.1,233.8 L 420.4,233.6 L 420.6,233.3 L 420.9,233.1 L 421.1,232.9 L 421.4,232.7 L 421.7,232.4 L 422.0,232.2 L 422.3,232.0 L 422.6,231.8 L 423.0,231.7 L 423.3,231.5 L 423.6,231.3 L 424.0,231.2 L 424.3,231.1 L 424.7,230.9 L 425.1,230.8 L 425.5,230.7 L 425.8,230.6 L 426.2,230.5 L 426.6,230.5 L 427.0,230.4 L 427.4,230.4 L 427.8,230.4 L 428.2,230.4 L 428.9,230.4 L 429.6,230.4 L 430.2,230.5 L 430.9,230.6 L 431.5,230.8 L 432.1,230.9 L 432.6,231.1 L 433.1,231.3 L 433.6,231.6 L 434.1,231.9 L 434.6,232.2 L 435.0,232.5 L 435.4,232.8 L 435.8,233.2 L 436.2,233.5 L 436.6,233.9 L 436.9,234.4 L 437.2,234.8 L 437.5,235.2 L 437.8,235.7 L 438.0,236.2 L 438.2,236.7 L 438.4,237.2 L 438.6,237.7 L 438.7,238.3 L 438.9,238.9 L 439.0,239.4 L 439.1,240.0 L 439.2,240.6 L 439.2,241.2 L 439.2,241.8 L 439.3,242.4 L 439.3,260.8 L 433.4,260.8 L 433.4,244.4 L 433.4,243.9 L 433.4,243.5 L 433.3,243.0 L 433.3,242.6 L 433.3,242.2 L 433.2,241.8 L 433.2,241.3 L 433.1,240.9 L 433.0,240.5 L 432.9,240.1 L 432.8,239.8 L 432.7,239.4 L 432.6,239.0 L 432.4,238.7 L 432.2,238.4 L 432.1,238.1 L 431.9,237.8 L 431.7,237.5 L 431.4,237.2 L 431.2,236.9 L 430.9,236.7 L 430.6,236.5 L 430.3,236.3 L 430.0,236.1 L 429.7,235.9 L 429.3,235.7 L 428.9,235.6 L 428.5,235.5 L 428.1,235.4 L 427.6,235.4 L 427.1,235.3 L 426.6,235.3 L 425.8,235.4 L 425.0,235.5 L 424.2,235.7 L 423.5,236.0 L 422.8,236.3 L 422.1,236.8 L 421.5,237.3 L 420.9,238.0 L 420.4,238.7 L 420.0,239.4 L 419.6,240.2 L 419.3,241.1 L 419.0,242.0 L 418.8,242.9 L 418.7,244.0 L 418.7,245.1 L 418.7,260.8 L 412.8,260.8 L 412.8,237.6 L 412.8,237.3 L 412.8,236.9 L 412.8,236.6 L 412.8,236.2 L 412.8,235.8 L 412.8,235.4 L 412.8,235.0 L 412.8,234.5 L 412.8,234.0 L 412.7,233.6 L 412.7,233.2 L 412.7,232.7 L 412.7,232.3 L 412.6,231.9 L 412.6,231.6 L 412.6,231.2 Z" fill="#E2B43A" fill-rule="evenodd"/> <path d="M 467.1,238.7 L 466.8,238.3 L 466.5,237.9 L 466.2,237.5 L 465.9,237.2 L 465.5,236.9 L 465.1,236.6 L 464.7,236.3 L 464.3,236.0 L 463.8,235.8 L 463.4,235.6 L 462.9,235.4 L 462.4,235.3 L 461.9,235.1 L 461.3,235.1 L 460.8,235.0 L 460.2,235.0 L 460.0,235.0 L 459.7,235.0 L 459.5,235.0 L 459.2,235.1 L 459.0,235.1 L 458.7,235.1 L 458.5,235.2 L 458.2,235.2 L 458.0,235.3 L 457.7,235.3 L 457.5,235.4 L 457.3,235.5 L 457.1,235.6 L 456.9,235.7 L 456.7,235.8 L 456.5,235.9 L 456.3,236.0 L 456.1,236.2 L 455.9,236.3 L 455.8,236.4 L 455.6,236.6 L 455.5,236.7 L 455.3,236.9 L 455.2,237.1 L 455.1,237.3 L 455.0,237.5 L 454.9,237.7 L 454.9,237.9 L 454.8,238.1 L 454.8,238.4 L 454.7,238.6 L 454.7,238.9 L 454.8,239.3 L 454.8,239.7 L 455.0,240.1 L 455.2,240.5 L 455.4,240.8 L 455.7,241.1 L 456.0,241.4 L 456.4,241.7 L 456.9,241.9 L 457.4,242.1 L 457.9,242.3 L 458.5,242.5 L 459.2,242.7 L 459.9,242.9 L 460.7,243.1 L 461.5,243.3 L 462.0,243.4 L 462.5,243.6 L 463.0,243.7 L 463.5,243.9 L 464.0,244.0 L 464.5,244.2 L 465.0,244.3 L 465.4,244.5 L 465.9,244.7 L 466.3,244.9 L 466.7,245.1 L 467.1,245.3 L 467.5,245.5 L 467.9,245.7 L 468.2,246.0 L 468.6,246.2 L 468.9,246.5 L 469.2,246.7 L 469.5,247.0 L 469.8,247.3 L 470.0,247.7 L 470.2,248.0 L 470.5,248.3 L 470.7,248.7 L 470.8,249.0 L 471.0,249.4 L 471.1,249.8 L 471.2,250.2 L 471.3,250.7 L 471.4,251.1 L 471.4,251.6 L 471.4,252.0 L 471.4,252.7 L 471.3,253.3 L 471.3,253.9 L 471.2,254.5 L 471.0,255.0 L 470.8,255.5 L 470.6,256.0 L 470.4,256.5 L 470.1,256.9 L 469.9,257.3 L 469.6,257.7 L 469.2,258.1 L 468.9,258.5 L 468.5,258.8 L 468.2,259.1 L 467.8,259.4 L 467.3,259.7 L 466.9,260.0 L 466.4,260.2 L 466.0,260.4 L 465.5,260.6 L 465.0,260.8 L 464.5,261.0 L 464.0,261.1 L 463.4,261.2 L 462.9,261.3 L 462.4,261.4 L 461.8,261.5 L 461.3,261.5 L 460.7,261.6 L 460.2,261.6 L 459.6,261.6 L 458.8,261.6 L 457.9,261.5 L 457.1,261.4 L 456.3,261.3 L 455.5,261.1 L 454.6,260.9 L 453.8,260.6 L 453.0,260.3 L 452.2,259.9 L 451.5,259.5 L 450.8,259.1 L 450.1,258.6 L 449.4,258.1 L 448.8,257.6 L 448.2,256.9 L 447.7,256.3 L 451.9,252.7 L 452.2,253.2 L 452.5,253.6 L 452.9,254.0 L 453.3,254.3 L 453.7,254.7 L 454.2,255.0 L 454.6,255.4 L 455.1,255.7 L 455.7,255.9 L 456.2,256.2 L 456.8,256.4 L 457.3,256.6 L 457.9,256.7 L 458.5,256.8 L 459.1,256.8 L 459.7,256.9 L 460.0,256.9 L 460.3,256.8 L 460.6,256.8 L 460.8,256.8 L 461.1,256.8 L 461.4,256.7 L 461.6,256.7 L 461.9,256.6 L 462.1,256.6 L 462.4,256.5 L 462.6,256.4 L 462.9,256.3 L 463.1,256.3 L 463.3,256.2 L 463.5,256.0 L 463.8,255.9 L 464.0,255.8 L 464.2,255.6 L 464.3,255.5 L 464.5,255.3 L 464.7,255.2 L 464.8,255.0 L 465.0,254.8 L 465.1,254.6 L 465.2,254.4 L 465.3,254.2 L 465.4,253.9 L 465.5,253.7 L 465.5,253.4 L 465.6,253.1 L 465.6,252.9 L 465.6,252.5 L 465.6,252.0 L 465.5,251.6 L 465.3,251.2 L 465.1,250.8 L 464.8,250.4 L 464.5,250.1 L 464.1,249.8 L 463.6,249.5 L 463.1,249.2 L 462.5,249.0 L 461.9,248.8 L 461.2,248.5 L 460.5,248.3 L 459.6,248.1 L 458.8,247.8 L 457.9,247.6 L 457.5,247.5 L 457.1,247.4 L 456.7,247.3 L 456.4,247.2 L 456.0,247.1 L 455.6,247.0 L 455.2,246.8 L 454.8,246.7 L 454.5,246.6 L 454.1,246.4 L 453.7,246.3 L 453.4,246.1 L 453.0,245.9 L 452.7,245.7 L 452.4,245.5 L 452.1,245.2 L 451.7,245.0 L 451.5,244.7 L 451.2,244.5 L 450.9,244.2 L 450.7,243.9 L 450.4,243.6 L 450.2,243.2 L 450.0,242.9 L 449.8,242.5 L 449.7,242.2 L 449.5,241.8 L 449.4,241.3 L 449.4,240.9 L 449.3,240.4 L 449.3,239.9 L 449.2,239.4 L 449.3,238.9 L 449.3,238.3 L 449.4,237.7 L 449.5,237.2 L 449.6,236.7 L 449.8,236.2 L 450.0,235.8 L 450.2,235.3 L 450.5,234.9 L 450.7,234.5 L 451.0,234.1 L 451.3,233.8 L 451.6,233.4 L 452.0,233.1 L 452.4,232.8 L 452.7,232.5 L 453.1,232.3 L 453.5,232.0 L 454.0,231.8 L 454.4,231.6 L 454.9,231.4 L 455.3,231.2 L 455.8,231.1 L 456.3,230.9 L 456.8,230.8 L 457.3,230.7 L 457.8,230.6 L 458.3,230.5 L 458.8,230.5 L 459.4,230.4 L 459.9,230.4 L 460.4,230.4 L 461.2,230.4 L 462.0,230.5 L 462.8,230.6 L 463.5,230.7 L 464.3,230.9 L 465.1,231.1 L 465.8,231.3 L 466.6,231.6 L 467.3,232.0 L 468.0,232.3 L 468.6,232.7 L 469.2,233.2 L 469.8,233.6 L 470.3,234.1 L 470.7,234.7 L 471.2,235.2 Z" fill="#E2B43A" fill-rule="evenodd"/> <path d="M 495.3,236.0 L 487.4,236.0 L 487.4,251.4 L 487.4,252.1 L 487.5,252.7 L 487.5,253.2 L 487.6,253.7 L 487.8,254.2 L 488.0,254.6 L 488.2,255.0 L 488.4,255.3 L 488.7,255.5 L 489.0,255.8 L 489.3,256.0 L 489.7,256.1 L 490.1,256.3 L 490.6,256.3 L 491.0,256.4 L 491.6,256.4 L 491.8,256.4 L 492.0,256.4 L 492.2,256.4 L 492.4,256.4 L 492.6,256.3 L 492.9,256.3 L 493.1,256.3 L 493.3,256.2 L 493.6,256.2 L 493.8,256.1 L 494.0,256.1 L 494.2,256.0 L 494.4,255.9 L 494.6,255.8 L 494.8,255.8 L 495.0,255.7 L 495.2,260.5 L 494.9,260.6 L 494.7,260.7 L 494.4,260.7 L 494.1,260.8 L 493.8,260.9 L 493.5,261.0 L 493.2,261.0 L 492.9,261.1 L 492.5,261.1 L 492.2,261.2 L 491.9,261.2 L 491.6,261.2 L 491.2,261.3 L 490.9,261.3 L 490.5,261.3 L 490.2,261.3 L 489.2,261.3 L 488.2,261.1 L 487.3,261.0 L 486.5,260.7 L 485.7,260.4 L 485.0,260.0 L 484.4,259.5 L 483.8,259.0 L 483.3,258.4 L 482.8,257.7 L 482.5,256.9 L 482.1,256.1 L 481.9,255.2 L 481.7,254.2 L 481.6,253.2 L 481.6,252.0 L 481.6,236.0 L 475.9,236.0 L 475.9,231.2 L 481.6,231.2 L 481.6,222.7 L 487.4,222.7 L 487.4,231.2 L 495.3,231.2 Z" fill="#E2B43A" fill-rule="evenodd"/> <path d="M 521.7,241.6 L 521.6,240.8 L 521.5,240.1 L 521.4,239.4 L 521.2,238.7 L 520.9,238.2 L 520.5,237.6 L 520.1,237.1 L 519.7,236.7 L 519.2,236.3 L 518.6,236.0 L 518.0,235.7 L 517.3,235.5 L 516.7,235.3 L 515.9,235.2 L 515.2,235.1 L 514.4,235.1 L 513.7,235.1 L 513.1,235.2 L 512.5,235.3 L 511.9,235.4 L 511.4,235.5 L 510.8,235.7 L 510.2,235.9 L 509.7,236.1 L 509.1,236.3 L 508.6,236.6 L 508.1,236.9 L 507.6,237.2 L 507.2,237.5 L 506.7,237.8 L 506.3,238.2 L 505.9,238.6 L 502.8,234.8 L 503.4,234.3 L 504.0,233.8 L 504.6,233.4 L 505.2,233.0 L 505.9,232.6 L 506.6,232.2 L 507.4,231.9 L 508.2,231.6 L 508.9,231.3 L 509.8,231.0 L 510.6,230.8 L 511.4,230.7 L 512.3,230.5 L 513.1,230.5 L 514.0,230.4 L 514.9,230.4 L 515.7,230.4 L 516.5,230.4 L 517.2,230.5 L 517.9,230.6 L 518.6,230.7 L 519.2,230.9 L 519.9,231.1 L 520.5,231.3 L 521.0,231.5 L 521.6,231.8 L 522.1,232.1 L 522.6,232.4 L 523.1,232.7 L 523.5,233.0 L 523.9,233.4 L 524.3,233.8 L 524.7,234.2 L 525.0,234.6 L 525.3,235.0 L 525.6,235.5 L 525.9,235.9 L 526.1,236.4 L 526.3,236.9 L 526.5,237.4 L 526.7,238.0 L 526.9,238.5 L 527.0,239.1 L 527.1,239.6 L 527.2,240.2 L 527.2,240.8 L 527.3,241.4 L 527.3,242.0 L 527.3,254.9 L 527.3,255.3 L 527.3,255.7 L 527.3,256.1 L 527.3,256.5 L 527.3,256.9 L 527.3,257.3 L 527.4,257.7 L 527.4,258.1 L 527.4,258.5 L 527.4,258.9 L 527.5,259.2 L 527.5,259.6 L 527.6,259.9 L 527.6,260.2 L 527.7,260.5 L 527.7,260.8 L 522.4,260.8 L 522.3,260.3 L 522.2,259.7 L 522.1,259.2 L 522.0,258.7 L 522.0,258.1 L 522.0,257.6 L 521.9,257.1 L 521.9,256.5 L 521.7,256.5 L 521.3,257.1 L 520.9,257.7 L 520.4,258.2 L 519.9,258.7 L 519.4,259.1 L 518.8,259.5 L 518.2,259.9 L 517.6,260.2 L 517.0,260.5 L 516.4,260.8 L 515.7,261.0 L 515.0,261.2 L 514.2,261.4 L 513.4,261.5 L 512.6,261.5 L 511.8,261.5 L 511.4,261.5 L 510.9,261.5 L 510.5,261.5 L 510.0,261.4 L 509.6,261.4 L 509.1,261.3 L 508.6,261.2 L 508.2,261.1 L 507.7,260.9 L 507.2,260.8 L 506.8,260.6 L 506.3,260.5 L 505.9,260.3 L 505.5,260.0 L 505.1,259.8 L 504.7,259.5 L 504.3,259.3 L 503.9,259.0 L 503.6,258.6 L 503.3,258.3 L 502.9,257.9 L 502.6,257.6 L 502.4,257.2 L 502.1,256.7 L 501.9,256.3 L 501.6,255.8 L 501.5,255.3 L 501.3,254.8 L 501.2,254.2 L 501.1,253.7 L 501.1,253.0 L 501.1,252.4 L 501.1,251.6 L 501.2,250.8 L 501.3,250.1 L 501.5,249.4 L 501.8,248.8 L 502.1,248.2 L 502.5,247.6 L 502.9,247.1 L 503.3,246.6 L 503.9,246.2 L 504.4,245.7 L 505.0,245.4 L 505.6,245.0 L 506.2,244.7 L 506.9,244.4 L 507.6,244.1 L 508.4,243.8 L 509.1,243.6 L 509.9,243.4 L 510.7,243.2 L 511.6,243.1 L 512.4,242.9 L 513.3,242.8 L 514.2,242.7 L 515.2,242.7 L 516.1,242.6 L 517.0,242.6 L 517.9,242.5 L 518.9,242.5 L 519.8,242.5 L 520.7,242.4 L 521.7,242.4 Z M 520.2,246.7 L 519.7,246.7 L 519.1,246.7 L 518.6,246.7 L 518.0,246.7 L 517.4,246.8 L 516.9,246.8 L 516.3,246.8 L 515.7,246.9 L 515.1,246.9 L 514.6,247.0 L 514.0,247.1 L 513.5,247.1 L 513.0,247.2 L 512.4,247.4 L 511.9,247.5 L 511.5,247.6 L 511.0,247.8 L 510.6,247.9 L 510.1,248.1 L 509.7,248.3 L 509.3,248.5 L 509.0,248.8 L 508.6,249.0 L 508.3,249.3 L 508.0,249.6 L 507.8,249.9 L 507.5,250.2 L 507.4,250.6 L 507.2,251.0 L 507.1,251.4 L 507.1,251.8 L 507.1,252.3 L 507.1,252.6 L 507.1,252.9 L 507.1,253.2 L 507.2,253.5 L 507.3,253.8 L 507.4,254.0 L 507.5,254.3 L 507.6,254.5 L 507.7,254.7 L 507.9,254.9 L 508.0,255.1 L 508.2,255.3 L 508.4,255.5 L 508.6,255.6 L 508.8,255.8 L 509.0,255.9 L 509.2,256.1 L 509.4,256.2 L 509.7,256.3 L 509.9,256.4 L 510.2,256.5 L 510.4,256.6 L 510.7,256.6 L 510.9,256.7 L 511.2,256.8 L 511.5,256.8 L 511.7,256.8 L 512.0,256.9 L 512.3,256.9 L 512.6,256.9 L 512.8,256.9 L 513.1,256.9 L 514.1,256.9 L 515.1,256.8 L 515.9,256.6 L 516.8,256.3 L 517.5,256.0 L 518.2,255.5 L 518.9,255.0 L 519.5,254.5 L 520.0,253.8 L 520.4,253.1 L 520.8,252.4 L 521.1,251.7 L 521.4,250.9 L 521.5,250.0 L 521.6,249.2 L 521.7,248.2 L 521.7,246.7 Z" fill="#E2B43A" fill-rule="evenodd"/> <path d="M 541.3,265.8 L 541.8,266.4 L 542.4,266.9 L 542.9,267.4 L 543.5,267.8 L 544.1,268.2 L 544.8,268.6 L 545.5,269.0 L 546.2,269.3 L 546.9,269.7 L 547.6,269.9 L 548.4,270.1 L 549.1,270.3 L 549.9,270.5 L 550.6,270.6 L 551.4,270.6 L 552.1,270.7 L 552.9,270.6 L 553.6,270.6 L 554.2,270.5 L 554.8,270.4 L 555.4,270.3 L 556.0,270.2 L 556.6,270.0 L 557.1,269.8 L 557.6,269.6 L 558.0,269.4 L 558.5,269.1 L 558.9,268.8 L 559.3,268.5 L 559.6,268.2 L 560.0,267.9 L 560.3,267.5 L 560.6,267.1 L 560.9,266.7 L 561.1,266.3 L 561.3,265.9 L 561.5,265.5 L 561.7,265.0 L 561.9,264.5 L 562.0,264.0 L 562.2,263.5 L 562.3,263.0 L 562.4,262.5 L 562.4,262.0 L 562.5,261.4 L 562.5,260.9 L 562.6,260.3 L 562.6,259.7 L 562.6,255.9 L 562.4,255.9 L 562.0,256.5 L 561.6,257.1 L 561.1,257.6 L 560.5,258.1 L 560.0,258.6 L 559.3,259.0 L 558.7,259.4 L 558.0,259.7 L 557.3,260.0 L 556.6,260.3 L 555.9,260.5 L 555.1,260.7 L 554.4,260.9 L 553.6,261.0 L 552.8,261.0 L 552.0,261.0 L 551.2,261.0 L 550.4,261.0 L 549.6,260.9 L 548.8,260.7 L 548.0,260.6 L 547.3,260.4 L 546.6,260.1 L 545.9,259.9 L 545.2,259.5 L 544.5,259.2 L 543.9,258.8 L 543.3,258.4 L 542.7,258.0 L 542.2,257.6 L 541.7,257.1 L 541.2,256.6 L 540.7,256.1 L 540.2,255.5 L 539.8,255.0 L 539.4,254.4 L 539.1,253.7 L 538.7,253.1 L 538.4,252.4 L 538.2,251.8 L 537.9,251.1 L 537.7,250.4 L 537.5,249.6 L 537.4,248.9 L 537.2,248.1 L 537.2,247.4 L 537.1,246.6 L 537.1,245.8 L 537.1,245.0 L 537.2,244.2 L 537.2,243.5 L 537.4,242.7 L 537.5,242.0 L 537.7,241.2 L 537.9,240.5 L 538.2,239.8 L 538.4,239.1 L 538.7,238.4 L 539.1,237.8 L 539.4,237.2 L 539.8,236.6 L 540.2,236.0 L 540.7,235.4 L 541.2,234.9 L 541.7,234.4 L 542.2,233.9 L 542.7,233.5 L 543.3,233.0 L 543.9,232.6 L 544.5,232.3 L 545.2,231.9 L 545.8,231.6 L 546.5,231.3 L 547.2,231.1 L 548.0,230.9 L 548.7,230.7 L 549.5,230.6 L 550.3,230.5 L 551.1,230.4 L 552.0,230.4 L 552.7,230.4 L 553.5,230.5 L 554.3,230.6 L 555.1,230.7 L 555.8,230.9 L 556.6,231.2 L 557.3,231.4 L 558.0,231.8 L 558.8,232.1 L 559.4,232.5 L 560.1,233.0 L 560.6,233.5 L 561.2,234.0 L 561.7,234.6 L 562.2,235.3 L 562.6,235.9 L 562.8,235.9 L 562.8,231.2 L 568.4,231.2 L 568.4,259.3 L 568.4,260.1 L 568.4,260.9 L 568.3,261.7 L 568.2,262.5 L 568.1,263.2 L 568.0,264.0 L 567.8,264.8 L 567.6,265.5 L 567.4,266.2 L 567.2,266.9 L 566.9,267.6 L 566.5,268.3 L 566.2,268.9 L 565.8,269.6 L 565.3,270.2 L 564.9,270.7 L 564.4,271.3 L 563.8,271.8 L 563.3,272.3 L 562.7,272.8 L 562.0,273.2 L 561.3,273.7 L 560.6,274.0 L 559.8,274.4 L 559.0,274.7 L 558.2,275.0 L 557.3,275.2 L 556.3,275.4 L 555.3,275.6 L 554.3,275.7 L 553.2,275.8 L 552.1,275.8 L 551.1,275.8 L 550.1,275.7 L 549.2,275.6 L 548.2,275.4 L 547.2,275.2 L 546.3,275.0 L 545.3,274.7 L 544.3,274.4 L 543.3,274.0 L 542.4,273.6 L 541.5,273.2 L 540.7,272.7 L 539.9,272.2 L 539.1,271.6 L 538.3,271.0 L 537.6,270.4 Z M 543.2,245.7 L 543.2,246.2 L 543.2,246.7 L 543.2,247.2 L 543.3,247.7 L 543.4,248.2 L 543.5,248.7 L 543.7,249.1 L 543.8,249.6 L 544.0,250.1 L 544.2,250.5 L 544.4,251.0 L 544.6,251.4 L 544.9,251.8 L 545.1,252.2 L 545.4,252.6 L 545.7,252.9 L 546.1,253.3 L 546.4,253.6 L 546.8,253.9 L 547.2,254.2 L 547.6,254.5 L 548.0,254.8 L 548.4,255.0 L 548.8,255.2 L 549.3,255.4 L 549.8,255.6 L 550.3,255.8 L 550.8,255.9 L 551.3,256.0 L 551.8,256.1 L 552.4,256.1 L 553.0,256.1 L 553.5,256.1 L 554.1,256.1 L 554.6,256.0 L 555.1,255.9 L 555.6,255.8 L 556.1,255.6 L 556.6,255.5 L 557.1,255.3 L 557.5,255.1 L 558.0,254.9 L 558.4,254.6 L 558.8,254.3 L 559.2,254.0 L 559.6,253.7 L 559.9,253.4 L 560.3,253.1 L 560.6,252.7 L 560.9,252.3 L 561.2,252.0 L 561.4,251.5 L 561.7,251.1 L 561.9,250.7 L 562.1,250.2 L 562.3,249.8 L 562.5,249.3 L 562.6,248.8 L 562.7,248.3 L 562.8,247.8 L 562.9,247.3 L 563.0,246.8 L 563.0,246.2 L 563.0,245.7 L 563.0,245.2 L 563.0,244.6 L 562.9,244.1 L 562.8,243.6 L 562.7,243.1 L 562.6,242.6 L 562.5,242.2 L 562.3,241.7 L 562.1,241.2 L 561.9,240.8 L 561.7,240.3 L 561.4,239.9 L 561.1,239.5 L 560.9,239.1 L 560.6,238.7 L 560.2,238.4 L 559.9,238.0 L 559.5,237.7 L 559.2,237.4 L 558.8,237.1 L 558.4,236.8 L 557.9,236.6 L 557.5,236.3 L 557.0,236.1 L 556.6,235.9 L 556.1,235.7 L 555.6,235.6 L 555.1,235.5 L 554.6,235.4 L 554.1,235.3 L 553.5,235.3 L 553.0,235.2 L 552.4,235.3 L 551.8,235.3 L 551.3,235.4 L 550.8,235.5 L 550.3,235.6 L 549.8,235.7 L 549.3,235.9 L 548.8,236.1 L 548.4,236.3 L 548.0,236.5 L 547.6,236.8 L 547.2,237.1 L 546.8,237.4 L 546.4,237.7 L 546.1,238.0 L 545.7,238.3 L 545.4,238.7 L 545.1,239.1 L 544.9,239.5 L 544.6,239.9 L 544.4,240.3 L 544.2,240.7 L 544.0,241.2 L 543.8,241.7 L 543.7,242.1 L 543.5,242.6 L 543.4,243.1 L 543.3,243.6 L 543.2,244.1 L 543.2,244.6 L 543.2,245.2 Z" fill="#E2B43A" fill-rule="evenodd"/> <path d="M 580.4,237.6 L 580.4,237.3 L 580.4,236.9 L 580.4,236.6 L 580.4,236.2 L 580.4,235.8 L 580.4,235.4 L 580.4,235.0 L 580.4,234.5 L 580.4,234.0 L 580.3,233.6 L 580.3,233.2 L 580.3,232.7 L 580.3,232.3 L 580.2,231.9 L 580.2,231.6 L 580.2,231.2 L 585.7,231.2 L 585.8,231.5 L 585.8,231.8 L 585.8,232.1 L 585.8,232.4 L 585.9,232.7 L 585.9,233.1 L 585.9,233.4 L 585.9,233.8 L 585.9,234.1 L 586.0,234.5 L 586.0,234.8 L 586.0,235.1 L 586.0,235.4 L 586.0,235.7 L 586.0,235.9 L 586.0,236.2 L 586.2,236.2 L 586.5,235.5 L 586.9,234.9 L 587.3,234.4 L 587.7,233.8 L 588.2,233.3 L 588.7,232.8 L 589.2,232.4 L 589.8,232.0 L 590.4,231.6 L 591.1,231.3 L 591.7,231.0 L 592.4,230.8 L 593.1,230.6 L 593.8,230.5 L 594.5,230.4 L 595.2,230.4 L 595.6,230.4 L 595.9,230.4 L 596.2,230.4 L 596.5,230.4 L 596.8,230.5 L 597.0,230.5 L 597.3,230.6 L 597.5,230.6 L 597.3,236.1 L 597.0,236.0 L 596.7,235.9 L 596.3,235.9 L 596.0,235.8 L 595.7,235.8 L 595.3,235.8 L 595.0,235.8 L 594.6,235.7 L 594.1,235.8 L 593.6,235.8 L 593.1,235.9 L 592.6,235.9 L 592.2,236.1 L 591.7,236.2 L 591.3,236.3 L 590.9,236.5 L 590.5,236.7 L 590.2,237.0 L 589.8,237.2 L 589.5,237.4 L 589.2,237.7 L 588.9,238.0 L 588.6,238.3 L 588.3,238.6 L 588.1,239.0 L 587.8,239.3 L 587.6,239.7 L 587.4,240.0 L 587.2,240.4 L 587.1,240.8 L 586.9,241.2 L 586.8,241.7 L 586.7,242.1 L 586.6,242.5 L 586.5,243.0 L 586.4,243.4 L 586.4,243.9 L 586.3,244.3 L 586.3,244.8 L 586.3,245.2 L 586.3,260.8 L 580.4,260.8 Z" fill="#E2B43A" fill-rule="evenodd"/> <path d="M 623.4,241.6 L 623.4,240.8 L 623.3,240.1 L 623.1,239.4 L 622.9,238.7 L 622.6,238.2 L 622.3,237.6 L 621.9,237.1 L 621.4,236.7 L 620.9,236.3 L 620.3,236.0 L 619.7,235.7 L 619.1,235.5 L 618.4,235.3 L 617.7,235.2 L 616.9,235.1 L 616.1,235.1 L 615.5,235.1 L 614.9,235.2 L 614.2,235.3 L 613.7,235.4 L 613.1,235.5 L 612.5,235.7 L 611.9,235.9 L 611.4,236.1 L 610.8,236.3 L 610.3,236.6 L 609.8,236.9 L 609.3,237.2 L 608.9,237.5 L 608.4,237.8 L 608.0,238.2 L 607.7,238.6 L 604.5,234.8 L 605.1,234.3 L 605.7,233.8 L 606.3,233.4 L 607.0,233.0 L 607.6,232.6 L 608.4,232.2 L 609.1,231.9 L 609.9,231.6 L 610.7,231.3 L 611.5,231.0 L 612.3,230.8 L 613.1,230.7 L 614.0,230.5 L 614.9,230.5 L 615.7,230.4 L 616.6,230.4 L 617.4,230.4 L 618.2,230.4 L 618.9,230.5 L 619.6,230.6 L 620.3,230.7 L 620.9,230.9 L 621.6,231.1 L 622.2,231.3 L 622.7,231.5 L 623.3,231.8 L 623.8,232.1 L 624.3,232.4 L 624.8,232.7 L 625.2,233.0 L 625.6,233.4 L 626.0,233.8 L 626.4,234.2 L 626.7,234.6 L 627.0,235.0 L 627.3,235.5 L 627.6,235.9 L 627.8,236.4 L 628.1,236.9 L 628.3,237.4 L 628.4,238.0 L 628.6,238.5 L 628.7,239.1 L 628.8,239.6 L 628.9,240.2 L 629.0,240.8 L 629.0,241.4 L 629.0,242.0 L 629.0,254.9 L 629.0,255.3 L 629.0,255.7 L 629.0,256.1 L 629.0,256.5 L 629.0,256.9 L 629.1,257.3 L 629.1,257.7 L 629.1,258.1 L 629.1,258.5 L 629.2,258.9 L 629.2,259.2 L 629.2,259.6 L 629.3,259.9 L 629.3,260.2 L 629.4,260.5 L 629.4,260.8 L 624.1,260.8 L 624.0,260.3 L 623.9,259.7 L 623.8,259.2 L 623.8,258.7 L 623.7,258.1 L 623.7,257.6 L 623.6,257.1 L 623.6,256.5 L 623.5,256.5 L 623.0,257.1 L 622.6,257.7 L 622.1,258.2 L 621.6,258.7 L 621.1,259.1 L 620.5,259.5 L 620.0,259.9 L 619.4,260.2 L 618.7,260.5 L 618.1,260.8 L 617.4,261.0 L 616.7,261.2 L 615.9,261.4 L 615.2,261.5 L 614.4,261.5 L 613.5,261.5 L 613.1,261.5 L 612.6,261.5 L 612.2,261.5 L 611.7,261.4 L 611.3,261.4 L 610.8,261.3 L 610.3,261.2 L 609.9,261.1 L 609.4,260.9 L 608.9,260.8 L 608.5,260.6 L 608.1,260.5 L 607.6,260.3 L 607.2,260.0 L 606.8,259.8 L 606.4,259.5 L 606.0,259.3 L 605.7,259.0 L 605.3,258.6 L 605.0,258.3 L 604.7,257.9 L 604.4,257.6 L 604.1,257.2 L 603.8,256.7 L 603.6,256.3 L 603.4,255.8 L 603.2,255.3 L 603.0,254.8 L 602.9,254.2 L 602.8,253.7 L 602.8,253.0 L 602.8,252.4 L 602.8,251.6 L 602.9,250.8 L 603.0,250.1 L 603.2,249.4 L 603.5,248.8 L 603.8,248.2 L 604.2,247.6 L 604.6,247.1 L 605.1,246.6 L 605.6,246.2 L 606.1,245.7 L 606.7,245.4 L 607.3,245.0 L 607.9,244.7 L 608.6,244.4 L 609.3,244.1 L 610.1,243.8 L 610.9,243.6 L 611.6,243.4 L 612.5,243.2 L 613.3,243.1 L 614.2,242.9 L 615.0,242.8 L 616.0,242.7 L 616.9,242.7 L 617.8,242.6 L 618.7,242.6 L 619.7,242.5 L 620.6,242.5 L 621.5,242.5 L 622.5,242.4 L 623.4,242.4 Z M 622.0,246.7 L 621.4,246.7 L 620.9,246.7 L 620.3,246.7 L 619.7,246.7 L 619.2,246.8 L 618.6,246.8 L 618.0,246.8 L 617.4,246.9 L 616.8,246.9 L 616.3,247.0 L 615.7,247.1 L 615.2,247.1 L 614.7,247.2 L 614.2,247.4 L 613.7,247.5 L 613.2,247.6 L 612.7,247.8 L 612.3,247.9 L 611.8,248.1 L 611.4,248.3 L 611.1,248.5 L 610.7,248.8 L 610.3,249.0 L 610.0,249.3 L 609.7,249.6 L 609.5,249.9 L 609.3,250.2 L 609.1,250.6 L 609.0,251.0 L 608.9,251.4 L 608.8,251.8 L 608.8,252.3 L 608.8,252.6 L 608.8,252.9 L 608.9,253.2 L 608.9,253.5 L 609.0,253.8 L 609.1,254.0 L 609.2,254.3 L 609.3,254.5 L 609.4,254.7 L 609.6,254.9 L 609.8,255.1 L 609.9,255.3 L 610.1,255.5 L 610.3,255.6 L 610.5,255.8 L 610.7,255.9 L 610.9,256.1 L 611.2,256.2 L 611.4,256.3 L 611.6,256.4 L 611.9,256.5 L 612.1,256.6 L 612.4,256.6 L 612.6,256.7 L 612.9,256.8 L 613.2,256.8 L 613.5,256.8 L 613.7,256.9 L 614.0,256.9 L 614.3,256.9 L 614.6,256.9 L 614.8,256.9 L 615.8,256.9 L 616.8,256.8 L 617.7,256.6 L 618.5,256.3 L 619.2,256.0 L 619.9,255.5 L 620.6,255.0 L 621.2,254.5 L 621.7,253.8 L 622.1,253.1 L 622.5,252.4 L 622.8,251.7 L 623.1,250.9 L 623.3,250.0 L 623.4,249.2 L 623.4,248.2 L 623.4,246.7 Z" fill="#E2B43A" fill-rule="evenodd"/> <path d="M 646.5,236.1 L 646.8,235.5 L 647.1,234.9 L 647.5,234.4 L 648.0,233.9 L 648.4,233.4 L 648.9,232.9 L 649.5,232.5 L 650.1,232.0 L 650.7,231.6 L 651.4,231.3 L 652.1,231.0 L 652.8,230.8 L 653.5,230.6 L 654.3,230.5 L 655.1,230.4 L 655.9,230.4 L 656.7,230.4 L 657.4,230.5 L 658.1,230.6 L 658.8,230.7 L 659.4,230.9 L 660.1,231.2 L 660.7,231.4 L 661.3,231.8 L 661.9,232.1 L 662.5,232.6 L 663.0,233.0 L 663.5,233.6 L 663.9,234.2 L 664.3,234.8 L 664.7,235.5 L 665.1,236.3 L 665.5,235.6 L 665.9,235.0 L 666.4,234.3 L 666.9,233.8 L 667.4,233.2 L 668.0,232.8 L 668.6,232.3 L 669.3,231.9 L 670.0,231.6 L 670.7,231.2 L 671.4,231.0 L 672.1,230.8 L 672.8,230.6 L 673.6,230.5 L 674.4,230.4 L 675.2,230.4 L 675.9,230.4 L 676.5,230.4 L 677.2,230.5 L 677.8,230.6 L 678.4,230.8 L 679.0,230.9 L 679.6,231.1 L 680.1,231.3 L 680.6,231.6 L 681.1,231.9 L 681.5,232.2 L 682.0,232.5 L 682.4,232.8 L 682.8,233.2 L 683.2,233.5 L 683.5,233.9 L 683.9,234.4 L 684.2,234.8 L 684.5,235.2 L 684.7,235.7 L 685.0,236.2 L 685.2,236.7 L 685.4,237.2 L 685.6,237.7 L 685.7,238.3 L 685.8,238.9 L 686.0,239.4 L 686.0,240.0 L 686.1,240.6 L 686.2,241.2 L 686.2,241.8 L 686.2,242.4 L 686.2,260.8 L 680.3,260.8 L 680.3,244.4 L 680.3,243.9 L 680.3,243.5 L 680.3,243.0 L 680.3,242.6 L 680.2,242.2 L 680.2,241.8 L 680.1,241.3 L 680.0,240.9 L 679.9,240.5 L 679.8,240.1 L 679.7,239.8 L 679.6,239.4 L 679.5,239.0 L 679.3,238.7 L 679.1,238.4 L 679.0,238.1 L 678.8,237.8 L 678.6,237.5 L 678.3,237.2 L 678.1,236.9 L 677.8,236.7 L 677.6,236.5 L 677.3,236.3 L 677.0,236.1 L 676.6,235.9 L 676.3,235.7 L 675.9,235.6 L 675.5,235.5 L 675.1,235.4 L 674.7,235.4 L 674.3,235.3 L 673.8,235.3 L 673.3,235.3 L 672.8,235.4 L 672.4,235.4 L 671.9,235.5 L 671.5,235.6 L 671.1,235.8 L 670.7,236.0 L 670.3,236.2 L 670.0,236.4 L 669.7,236.6 L 669.3,236.9 L 669.0,237.1 L 668.8,237.4 L 668.5,237.7 L 668.2,238.0 L 668.0,238.3 L 667.8,238.7 L 667.6,239.0 L 667.4,239.4 L 667.2,239.8 L 667.1,240.2 L 666.9,240.5 L 666.8,241.0 L 666.7,241.4 L 666.6,241.8 L 666.5,242.2 L 666.4,242.6 L 666.4,243.1 L 666.3,243.5 L 666.3,243.9 L 666.3,244.4 L 666.3,244.8 L 666.3,260.8 L 660.4,260.8 L 660.4,243.2 L 660.4,242.7 L 660.4,242.3 L 660.4,241.9 L 660.3,241.5 L 660.3,241.1 L 660.2,240.7 L 660.2,240.4 L 660.1,240.0 L 660.0,239.6 L 659.9,239.3 L 659.8,239.0 L 659.7,238.7 L 659.5,238.4 L 659.4,238.1 L 659.2,237.8 L 659.0,237.5 L 658.8,237.3 L 658.6,237.0 L 658.4,236.8 L 658.2,236.6 L 657.9,236.4 L 657.7,236.2 L 657.4,236.1 L 657.1,235.9 L 656.8,235.8 L 656.5,235.6 L 656.1,235.5 L 655.8,235.5 L 655.4,235.4 L 655.0,235.3 L 654.6,235.3 L 654.2,235.3 L 653.4,235.4 L 652.6,235.5 L 651.9,235.7 L 651.2,236.0 L 650.5,236.3 L 649.9,236.8 L 649.3,237.3 L 648.8,238.0 L 648.3,238.7 L 647.8,239.4 L 647.5,240.2 L 647.2,241.1 L 646.9,242.0 L 646.8,242.9 L 646.7,244.0 L 646.6,245.1 L 646.6,260.8 L 640.7,260.8 L 640.7,237.6 L 640.7,237.3 L 640.7,236.9 L 640.7,236.6 L 640.7,236.2 L 640.7,235.8 L 640.7,235.4 L 640.7,235.0 L 640.7,234.5 L 640.7,234.0 L 640.6,233.6 L 640.6,233.2 L 640.6,232.7 L 640.6,232.3 L 640.6,231.9 L 640.5,231.6 L 640.5,231.2 L 646.1,231.2 L 646.1,231.5 L 646.1,231.8 L 646.1,232.1 L 646.2,232.4 L 646.2,232.7 L 646.2,233.0 L 646.2,233.4 L 646.2,233.7 L 646.3,234.1 L 646.3,234.4 L 646.3,234.7 L 646.3,235.0 L 646.3,235.3 L 646.3,235.6 L 646.3,235.8 L 646.3,236.1 Z" fill="#E2B43A" fill-rule="evenodd"/>
  <circle cx="540.0" cy="410.0" r="77.4" fill="none" stroke="#E2B43A" stroke-width="1.8" stroke-dasharray="6 5" opacity="0.45"/>
  <rect x="448.8" y="318.8" width="182.4" height="182.4" rx="40.1" fill="none" stroke="#E2B43A" stroke-width="16.0"/><circle cx="540.0" cy="410.0" r="41.2" fill="none" stroke="#E2B43A" stroke-width="16.0"/><circle cx="581.9" cy="368.1" r="8.8" fill="#E2B43A"/>
  <polygon points="480.4,578.6 508.1,578.6 508.1,584.2 480.4,584.2" fill="#E2B43A"/> <polygon points="483.2,581.4 483.0,580.3 482.4,579.4 481.5,578.8 480.4,578.6 479.3,578.8 478.4,579.4 477.8,580.3 477.6,581.4 477.8,582.4 478.4,583.3 479.3,583.9 480.4,584.2 481.5,583.9 482.4,583.3 483.0,582.4" fill="#E2B43A"/> <polygon points="510.9,581.4 510.7,580.3 510.1,579.4 509.1,578.8 508.1,578.6 507.0,578.8 506.1,579.4 505.5,580.3 505.3,581.4 505.5,582.4 506.1,583.3 507.0,583.9 508.1,584.2 509.1,583.9 510.1,583.3 510.7,582.4" fill="#E2B43A"/> <polygon points="491.4,614.4 491.4,581.4 497.0,581.4 497.0,614.4" fill="#E2B43A"/> <polygon points="497.0,614.4 496.8,613.4 496.2,612.4 495.3,611.8 494.2,611.6 493.2,611.8 492.3,612.4 491.7,613.4 491.4,614.4 491.7,615.5 492.3,616.4 493.2,617.0 494.2,617.2 495.3,617.0 496.2,616.4 496.8,615.5" fill="#E2B43A"/> <polygon points="497.0,581.4 496.8,580.3 496.2,579.4 495.3,578.8 494.2,578.6 493.2,578.8 492.3,579.4 491.7,580.3 491.4,581.4 491.7,582.4 492.3,583.3 493.2,583.9 494.2,584.2 495.3,583.9 496.2,583.3 496.8,582.4" fill="#E2B43A"/> <polygon points="522.7,613.2 539.0,580.1 544.1,582.6 527.8,615.7" fill="#E2B43A"/> <polygon points="528.1,614.4 527.9,613.4 527.2,612.4 526.3,611.8 525.3,611.6 524.2,611.8 523.3,612.4 522.7,613.4 522.5,614.4 522.7,615.5 523.3,616.4 524.2,617.0 525.3,617.2 526.3,617.0 527.2,616.4 527.9,615.5" fill="#E2B43A"/> <polygon points="544.4,581.4 544.1,580.3 543.5,579.4 542.6,578.8 541.5,578.6 540.5,578.8 539.6,579.4 539.0,580.3 538.7,581.4 539.0,582.4 539.6,583.3 540.5,583.9 541.5,584.2 542.6,583.9 543.5,583.3 544.1,582.4" fill="#E2B43A"/> <polygon points="555.3,615.7 539.0,582.6 544.1,580.1 560.3,613.2" fill="#E2B43A"/> <polygon points="560.6,614.4 560.4,613.4 559.8,612.4 558.9,611.8 557.8,611.6 556.8,611.8 555.9,612.4 555.2,613.4 555.0,614.4 555.2,615.5 555.9,616.4 556.8,617.0 557.8,617.2 558.9,617.0 559.8,616.4 560.4,615.5" fill="#E2B43A"/> <polygon points="544.4,581.4 544.1,580.3 543.5,579.4 542.6,578.8 541.5,578.6 540.5,578.8 539.6,579.4 539.0,580.3 538.7,581.4 539.0,582.4 539.6,583.3 540.5,583.9 541.5,584.2 542.6,583.9 543.5,583.3 544.1,582.4" fill="#E2B43A"/> <polygon points="533.2,601.3 549.9,601.3 549.9,606.9 533.2,606.9" fill="#E2B43A"/> <polygon points="536.0,604.1 535.8,603.0 535.2,602.1 534.3,601.5 533.2,601.3 532.1,601.5 531.2,602.1 530.6,603.0 530.4,604.1 530.6,605.2 531.2,606.1 532.1,606.7 533.2,606.9 534.3,606.7 535.2,606.1 535.8,605.2" fill="#E2B43A"/> <polygon points="552.7,604.1 552.5,603.0 551.9,602.1 551.0,601.5 549.9,601.3 548.8,601.5 547.9,602.1 547.3,603.0 547.1,604.1 547.3,605.2 547.9,606.1 548.8,606.7 549.9,606.9 551.0,606.7 551.9,606.1 552.5,605.2" fill="#E2B43A"/> <polygon points="572.2,614.4 572.2,581.4 577.8,581.4 577.8,614.4" fill="#E2B43A"/> <polygon points="577.8,614.4 577.6,613.4 577.0,612.4 576.1,611.8 575.0,611.6 573.9,611.8 573.0,612.4 572.4,613.4 572.2,614.4 572.4,615.5 573.0,616.4 573.9,617.0 575.0,617.2 576.1,617.0 577.0,616.4 577.6,615.5" fill="#E2B43A"/> <polygon points="577.8,581.4 577.6,580.3 577.0,579.4 576.1,578.8 575.0,578.6 573.9,578.8 573.0,579.4 572.4,580.3 572.2,581.4 572.4,582.4 573.0,583.3 573.9,583.9 575.0,584.2 576.1,583.9 577.0,583.3 577.6,582.4" fill="#E2B43A"/> <polygon points="579.6,579.1 581.7,578.6 583.9,578.6 586.1,578.9 588.2,579.7 590.1,580.8 591.7,582.2 593.1,584.0 594.1,585.9 594.7,588.1 594.9,590.3 594.7,592.4 594.1,594.6 593.1,596.5 591.7,598.3 590.1,599.7 588.2,600.8 586.1,601.6 583.9,601.9 581.7,601.9 579.6,601.4 581.3,596.0 582.4,596.3 583.6,596.3 584.7,596.2 585.8,595.8 586.8,595.2 587.7,594.4 588.4,593.5 588.9,592.5 589.2,591.4 589.3,590.3 589.2,589.1 588.9,588.0 588.4,587.0 587.7,586.1 586.8,585.3 585.8,584.7 584.7,584.4 583.6,584.2 582.4,584.2 581.3,584.5" fill="#E2B43A"/> <polygon points="583.3,581.8 583.1,580.7 582.4,579.8 581.5,579.2 580.5,579.0 579.4,579.2 578.5,579.8 577.9,580.7 577.7,581.8 577.9,582.9 578.5,583.8 579.4,584.4 580.5,584.6 581.5,584.4 582.4,583.8 583.1,582.9" fill="#E2B43A"/> <polygon points="583.3,598.7 583.1,597.6 582.4,596.7 581.5,596.1 580.5,595.9 579.4,596.1 578.5,596.7 577.9,597.6 577.7,598.7 577.9,599.8 578.5,600.7 579.4,601.3 580.5,601.5 581.5,601.3 582.4,600.7 583.1,599.8" fill="#E2B43A"/>
  <rect x="296.8" y="679.3" width="486.3" height="48" rx="8" fill="#141416"/>
  <polygon points="426.3,710.4 426.3,696.1 430.7,696.1 430.7,710.4" fill="#E2B43A"/> <polygon points="430.7,710.4 430.6,709.6 430.1,708.9 429.4,708.4 428.5,708.2 427.7,708.4 426.9,708.9 426.5,709.6 426.3,710.4 426.5,711.3 426.9,712.0 427.7,712.5 428.5,712.7 429.4,712.5 430.1,712.0 430.6,711.3" fill="#E2B43A"/> <polygon points="430.7,696.1 430.6,695.2 430.1,694.5 429.4,694.0 428.5,693.9 427.7,694.0 426.9,694.5 426.5,695.2 426.3,696.1 426.5,696.9 426.9,697.6 427.7,698.1 428.5,698.3 429.4,698.1 430.1,697.6 430.6,696.9" fill="#E2B43A"/> <polygon points="438.4,710.4 438.4,696.1 442.8,696.1 442.8,710.4" fill="#E2B43A"/> <polygon points="442.8,710.4 442.7,709.6 442.2,708.9 441.5,708.4 440.6,708.2 439.8,708.4 439.1,708.9 438.6,709.6 438.4,710.4 438.6,711.3 439.1,712.0 439.8,712.5 440.6,712.7 441.5,712.5 442.2,712.0 442.7,711.3" fill="#E2B43A"/> <polygon points="442.8,696.1 442.7,695.2 442.2,694.5 441.5,694.0 440.6,693.9 439.8,694.0 439.1,694.5 438.6,695.2 438.4,696.1 438.6,696.9 439.1,697.6 439.8,698.1 440.6,698.3 441.5,698.1 442.2,697.6 442.7,696.9" fill="#E2B43A"/> <polygon points="430.2,694.7 442.3,709.0 438.9,711.9 426.8,697.5" fill="#E2B43A"/> <polygon points="430.7,696.1 430.6,695.2 430.1,694.5 429.4,694.0 428.5,693.9 427.7,694.0 426.9,694.5 426.5,695.2 426.3,696.1 426.5,696.9 426.9,697.6 427.7,698.1 428.5,698.3 429.4,698.1 430.1,697.6 430.6,696.9" fill="#E2B43A"/> <polygon points="442.8,710.4 442.7,709.6 442.2,708.9 441.5,708.4 440.6,708.2 439.8,708.4 439.1,708.9 438.6,709.6 438.4,710.4 438.6,711.3 439.1,712.0 439.8,712.5 440.6,712.7 441.5,712.5 442.2,712.0 442.7,711.3" fill="#E2B43A"/> <polygon points="449.2,710.4 449.2,696.1 453.6,696.1 453.6,710.4" fill="#E2B43A"/> <polygon points="453.6,710.4 453.4,709.6 453.0,708.9 452.2,708.4 451.4,708.2 450.6,708.4 449.8,708.9 449.4,709.6 449.2,710.4 449.4,711.3 449.8,712.0 450.6,712.5 451.4,712.7 452.2,712.5 453.0,712.0 453.4,711.3" fill="#E2B43A"/> <polygon points="453.6,696.1 453.4,695.2 453.0,694.5 452.2,694.0 451.4,693.9 450.6,694.0 449.8,694.5 449.4,695.2 449.2,696.1 449.4,696.9 449.8,697.6 450.6,698.1 451.4,698.3 452.2,698.1 453.0,697.6 453.4,696.9" fill="#E2B43A"/> <polygon points="451.4,693.9 460.5,693.9 460.5,698.3 451.4,698.3" fill="#E2B43A"/> <polygon points="453.6,696.1 453.4,695.2 453.0,694.5 452.2,694.0 451.4,693.9 450.6,694.0 449.8,694.5 449.4,695.2 449.2,696.1 449.4,696.9 449.8,697.6 450.6,698.1 451.4,698.3 452.2,698.1 453.0,697.6 453.4,696.9" fill="#E2B43A"/> <polygon points="462.7,696.1 462.6,695.2 462.1,694.5 461.4,694.0 460.5,693.9 459.7,694.0 458.9,694.5 458.5,695.2 458.3,696.1 458.5,696.9 458.9,697.6 459.7,698.1 460.5,698.3 461.4,698.1 462.1,697.6 462.6,696.9" fill="#E2B43A"/> <polygon points="451.4,700.7 458.7,700.7 458.7,705.1 451.4,705.1" fill="#E2B43A"/> <polygon points="453.6,702.9 453.4,702.0 453.0,701.3 452.2,700.8 451.4,700.7 450.6,700.8 449.8,701.3 449.4,702.0 449.2,702.9 449.4,703.7 449.8,704.5 450.6,704.9 451.4,705.1 452.2,704.9 453.0,704.5 453.4,703.7" fill="#E2B43A"/> <polygon points="460.9,702.9 460.7,702.0 460.2,701.3 459.5,700.8 458.7,700.7 457.8,700.8 457.1,701.3 456.6,702.0 456.5,702.9 456.6,703.7 457.1,704.5 457.8,704.9 458.7,705.1 459.5,704.9 460.2,704.5 460.7,703.7" fill="#E2B43A"/> <polygon points="484.1,697.0 482.6,695.6 480.8,694.6 478.8,694.0 476.8,693.9 474.8,694.2 472.8,694.9 471.1,696.0 469.7,697.5 468.6,699.3 468.0,701.2 467.8,703.3 468.0,705.3 468.6,707.2 469.7,709.0 471.1,710.5 472.8,711.6 474.8,712.3 476.8,712.7 478.8,712.5 480.8,711.9 482.6,710.9 484.1,709.5 480.9,706.6 480.0,707.3 479.1,707.8 478.0,708.2 477.0,708.2 475.9,708.1 474.9,707.7 474.0,707.1 473.2,706.3 472.7,705.4 472.3,704.3 472.2,703.3 472.3,702.2 472.7,701.2 473.2,700.2 474.0,699.4 474.9,698.8 475.9,698.5 477.0,698.3 478.0,698.4 479.1,698.7 480.0,699.2 480.9,699.9" fill="#E2B43A"/> <polygon points="484.7,698.5 484.5,697.6 484.1,696.9 483.3,696.4 482.5,696.2 481.6,696.4 480.9,696.9 480.5,697.6 480.3,698.5 480.5,699.3 480.9,700.0 481.6,700.5 482.5,700.7 483.3,700.5 484.1,700.0 484.5,699.3" fill="#E2B43A"/> <polygon points="484.7,708.1 484.5,707.2 484.1,706.5 483.3,706.0 482.5,705.9 481.6,706.0 480.9,706.5 480.5,707.2 480.3,708.1 480.5,708.9 480.9,709.6 481.6,710.1 482.5,710.3 483.3,710.1 484.1,709.6 484.5,708.9" fill="#E2B43A"/> <polygon points="493.8,693.9 505.5,693.9 505.5,698.3 493.8,698.3" fill="#E2B43A"/> <polygon points="496.0,696.1 495.8,695.2 495.4,694.5 494.6,694.0 493.8,693.9 493.0,694.0 492.2,694.5 491.8,695.2 491.6,696.1 491.8,696.9 492.2,697.6 493.0,698.1 493.8,698.3 494.6,698.1 495.4,697.6 495.8,696.9" fill="#E2B43A"/> <polygon points="507.7,696.1 507.6,695.2 507.1,694.5 506.4,694.0 505.5,693.9 504.7,694.0 504.0,694.5 503.5,695.2 503.3,696.1 503.5,696.9 504.0,697.6 504.7,698.1 505.5,698.3 506.4,698.1 507.1,697.6 507.6,696.9" fill="#E2B43A"/> <polygon points="497.5,710.4 497.5,696.1 501.9,696.1 501.9,710.4" fill="#E2B43A"/> <polygon points="501.9,710.4 501.7,709.6 501.2,708.9 500.5,708.4 499.7,708.2 498.8,708.4 498.1,708.9 497.6,709.6 497.5,710.4 497.6,711.3 498.1,712.0 498.8,712.5 499.7,712.7 500.5,712.5 501.2,712.0 501.7,711.3" fill="#E2B43A"/> <polygon points="501.9,696.1 501.7,695.2 501.2,694.5 500.5,694.0 499.7,693.9 498.8,694.0 498.1,694.5 497.6,695.2 497.5,696.1 497.6,696.9 498.1,697.6 498.8,698.1 499.7,698.3 500.5,698.1 501.2,697.6 501.7,696.9" fill="#E2B43A"/> <polygon points="513.0,709.4 520.6,695.0 524.5,697.1 516.9,711.5" fill="#E2B43A"/> <polygon points="517.2,710.4 517.0,709.6 516.6,708.9 515.8,708.4 515.0,708.2 514.1,708.4 513.4,708.9 512.9,709.6 512.8,710.4 512.9,711.3 513.4,712.0 514.1,712.5 515.0,712.7 515.8,712.5 516.6,712.0 517.0,711.3" fill="#E2B43A"/> <polygon points="524.8,696.1 524.6,695.2 524.1,694.5 523.4,694.0 522.6,693.9 521.7,694.0 521.0,694.5 520.5,695.2 520.3,696.1 520.5,696.9 521.0,697.6 521.7,698.1 522.6,698.3 523.4,698.1 524.1,697.6 524.6,696.9" fill="#E2B43A"/> <polygon points="528.2,711.5 520.6,697.1 524.5,695.0 532.1,709.4" fill="#E2B43A"/> <polygon points="532.3,710.4 532.2,709.6 531.7,708.9 531.0,708.4 530.1,708.2 529.3,708.4 528.6,708.9 528.1,709.6 527.9,710.4 528.1,711.3 528.6,712.0 529.3,712.5 530.1,712.7 531.0,712.5 531.7,712.0 532.2,711.3" fill="#E2B43A"/> <polygon points="524.8,696.1 524.6,695.2 524.1,694.5 523.4,694.0 522.6,693.9 521.7,694.0 521.0,694.5 520.5,695.2 520.3,696.1 520.5,696.9 521.0,697.6 521.7,698.1 522.6,698.3 523.4,698.1 524.1,697.6 524.6,696.9" fill="#E2B43A"/> <polygon points="518.5,704.1 526.6,704.1 526.6,708.5 518.5,708.5" fill="#E2B43A"/> <polygon points="520.7,706.3 520.5,705.4 520.1,704.7 519.3,704.2 518.5,704.1 517.7,704.2 516.9,704.7 516.5,705.4 516.3,706.3 516.5,707.1 516.9,707.8 517.7,708.3 518.5,708.5 519.3,708.3 520.1,707.8 520.5,707.1" fill="#E2B43A"/> <polygon points="528.8,706.3 528.7,705.4 528.2,704.7 527.5,704.2 526.6,704.1 525.8,704.2 525.1,704.7 524.6,705.4 524.4,706.3 524.6,707.1 525.1,707.8 525.8,708.3 526.6,708.5 527.5,708.3 528.2,707.8 528.7,707.1" fill="#E2B43A"/> <polygon points="537.4,710.4 537.4,696.1 541.8,696.1 541.8,710.4" fill="#E2B43A"/> <polygon points="541.8,710.4 541.6,709.6 541.1,708.9 540.4,708.4 539.6,708.2 538.7,708.4 538.0,708.9 537.5,709.6 537.4,710.4 537.5,711.3 538.0,712.0 538.7,712.5 539.6,712.7 540.4,712.5 541.1,712.0 541.6,711.3" fill="#E2B43A"/> <polygon points="541.8,696.1 541.6,695.2 541.1,694.5 540.4,694.0 539.6,693.9 538.7,694.0 538.0,694.5 537.5,695.2 537.4,696.1 537.5,696.9 538.0,697.6 538.7,698.1 539.6,698.3 540.4,698.1 541.1,697.6 541.6,696.9" fill="#E2B43A"/> <polygon points="541.5,694.2 542.7,693.9 544.0,693.9 545.2,694.1 546.3,694.5 547.4,695.1 548.3,695.9 549.1,696.9 549.6,698.0 550.0,699.2 550.1,700.4 550.0,701.6 549.6,702.8 549.1,703.9 548.3,704.9 547.4,705.7 546.3,706.3 545.2,706.7 544.0,706.9 542.7,706.9 541.5,706.6 542.9,702.4 543.3,702.5 543.7,702.5 544.1,702.4 544.5,702.3 544.8,702.1 545.1,701.8 545.3,701.5 545.5,701.2 545.6,700.8 545.7,700.4 545.6,700.0 545.5,699.6 545.3,699.3 545.1,699.0 544.8,698.7 544.5,698.5 544.1,698.4 543.7,698.3 543.3,698.3 542.9,698.4" fill="#E2B43A"/> <polygon points="544.4,696.3 544.3,695.4 543.8,694.7 543.1,694.2 542.2,694.1 541.4,694.2 540.7,694.7 540.2,695.4 540.0,696.3 540.2,697.1 540.7,697.9 541.4,698.3 542.2,698.5 543.1,698.3 543.8,697.9 544.3,697.1" fill="#E2B43A"/> <polygon points="544.4,704.5 544.3,703.7 543.8,702.9 543.1,702.5 542.2,702.3 541.4,702.5 540.7,702.9 540.2,703.7 540.0,704.5 540.2,705.4 540.7,706.1 541.4,706.6 542.2,706.7 543.1,706.6 543.8,706.1 544.3,705.4" fill="#E2B43A"/> <polygon points="564.3,710.3 564.1,709.4 563.6,708.5 562.7,708.0 561.8,707.8 560.8,708.0 560.0,708.5 559.4,709.4 559.2,710.3 559.4,711.3 560.0,712.1 560.8,712.7 561.8,712.9 562.7,712.7 563.6,712.1 564.1,711.3" fill="#E2B43A"/> <polygon points="573.7,693.9 585.4,693.9 585.4,698.3 573.7,698.3" fill="#E2B43A"/> <polygon points="575.9,696.1 575.8,695.2 575.3,694.5 574.6,694.0 573.7,693.9 572.9,694.0 572.1,694.5 571.7,695.2 571.5,696.1 571.7,696.9 572.1,697.6 572.9,698.1 573.7,698.3 574.6,698.1 575.3,697.6 575.8,696.9" fill="#E2B43A"/> <polygon points="587.7,696.1 587.5,695.2 587.0,694.5 586.3,694.0 585.4,693.9 584.6,694.0 583.9,694.5 583.4,695.2 583.2,696.1 583.4,696.9 583.9,697.6 584.6,698.1 585.4,698.3 586.3,698.1 587.0,697.6 587.5,696.9" fill="#E2B43A"/> <polygon points="577.4,710.4 577.4,696.1 581.8,696.1 581.8,710.4" fill="#E2B43A"/> <polygon points="581.8,710.4 581.6,709.6 581.1,708.9 580.4,708.4 579.6,708.2 578.7,708.4 578.0,708.9 577.5,709.6 577.4,710.4 577.5,711.3 578.0,712.0 578.7,712.5 579.6,712.7 580.4,712.5 581.1,712.0 581.6,711.3" fill="#E2B43A"/> <polygon points="581.8,696.1 581.6,695.2 581.1,694.5 580.4,694.0 579.6,693.9 578.7,694.0 578.0,694.5 577.5,695.2 577.4,696.1 577.5,696.9 578.0,697.6 578.7,698.1 579.6,698.3 580.4,698.1 581.1,697.6 581.6,696.9" fill="#E2B43A"/> <polygon points="594.0,710.4 594.0,696.1 598.4,696.1 598.4,710.4" fill="#E2B43A"/> <polygon points="598.4,710.4 598.3,709.6 597.8,708.9 597.1,708.4 596.2,708.2 595.4,708.4 594.7,708.9 594.2,709.6 594.0,710.4 594.2,711.3 594.7,712.0 595.4,712.5 596.2,712.7 597.1,712.5 597.8,712.0 598.3,711.3" fill="#E2B43A"/> <polygon points="598.4,696.1 598.3,695.2 597.8,694.5 597.1,694.0 596.2,693.9 595.4,694.0 594.7,694.5 594.2,695.2 594.0,696.1 594.2,696.9 594.7,697.6 595.4,698.1 596.2,698.3 597.1,698.1 597.8,697.6 598.3,696.9" fill="#E2B43A"/> <polygon points="596.2,693.9 606.1,693.9 606.1,698.3 596.2,698.3" fill="#E2B43A"/> <polygon points="598.4,696.1 598.3,695.2 597.8,694.5 597.1,694.0 596.2,693.9 595.4,694.0 594.7,694.5 594.2,695.2 594.0,696.1 594.2,696.9 594.7,697.6 595.4,698.1 596.2,698.3 597.1,698.1 597.8,697.6 598.3,696.9" fill="#E2B43A"/> <polygon points="608.3,696.1 608.1,695.2 607.6,694.5 606.9,694.0 606.1,693.9 605.2,694.0 604.5,694.5 604.0,695.2 603.9,696.1 604.0,696.9 604.5,697.6 605.2,698.1 606.1,698.3 606.9,698.1 607.6,697.6 608.1,696.9" fill="#E2B43A"/> <polygon points="596.2,701.1 604.3,701.1 604.3,705.5 596.2,705.5" fill="#E2B43A"/> <polygon points="598.4,703.3 598.3,702.4 597.8,701.7 597.1,701.2 596.2,701.1 595.4,701.2 594.7,701.7 594.2,702.4 594.0,703.3 594.2,704.1 594.7,704.8 595.4,705.3 596.2,705.5 597.1,705.3 597.8,704.8 598.3,704.1" fill="#E2B43A"/> <polygon points="606.5,703.3 606.3,702.4 605.9,701.7 605.1,701.2 604.3,701.1 603.4,701.2 602.7,701.7 602.3,702.4 602.1,703.3 602.3,704.1 602.7,704.8 603.4,705.3 604.3,705.5 605.1,705.3 605.9,704.8 606.3,704.1" fill="#E2B43A"/> <polygon points="596.2,708.2 606.1,708.2 606.1,712.7 596.2,712.7" fill="#E2B43A"/> <polygon points="598.4,710.4 598.3,709.6 597.8,708.9 597.1,708.4 596.2,708.2 595.4,708.4 594.7,708.9 594.2,709.6 594.0,710.4 594.2,711.3 594.7,712.0 595.4,712.5 596.2,712.7 597.1,712.5 597.8,712.0 598.3,711.3" fill="#E2B43A"/> <polygon points="608.3,710.4 608.1,709.6 607.6,708.9 606.9,708.4 606.1,708.2 605.2,708.4 604.5,708.9 604.0,709.6 603.9,710.4 604.0,711.3 604.5,712.0 605.2,712.5 606.1,712.7 606.9,712.5 607.6,712.0 608.1,711.3" fill="#E2B43A"/> <polygon points="629.7,697.0 628.2,695.6 626.4,694.6 624.4,694.0 622.4,693.9 620.3,694.2 618.4,694.9 616.7,696.0 615.3,697.5 614.2,699.3 613.6,701.2 613.3,703.3 613.6,705.3 614.2,707.2 615.3,709.0 616.7,710.5 618.4,711.6 620.3,712.3 622.4,712.7 624.4,712.5 626.4,711.9 628.2,710.9 629.7,709.5 626.4,706.6 625.6,707.3 624.7,707.8 623.6,708.2 622.5,708.2 621.5,708.1 620.4,707.7 619.5,707.1 618.8,706.3 618.2,705.4 617.9,704.3 617.8,703.3 617.9,702.2 618.2,701.2 618.8,700.2 619.5,699.4 620.4,698.8 621.5,698.5 622.5,698.3 623.6,698.4 624.7,698.7 625.6,699.2 626.4,699.9" fill="#E2B43A"/> <polygon points="630.3,698.5 630.1,697.6 629.6,696.9 628.9,696.4 628.1,696.2 627.2,696.4 626.5,696.9 626.0,697.6 625.9,698.5 626.0,699.3 626.5,700.0 627.2,700.5 628.1,700.7 628.9,700.5 629.6,700.0 630.1,699.3" fill="#E2B43A"/> <polygon points="630.3,708.1 630.1,707.2 629.6,706.5 628.9,706.0 628.1,705.9 627.2,706.0 626.5,706.5 626.0,707.2 625.9,708.1 626.0,708.9 626.5,709.6 627.2,710.1 628.1,710.3 628.9,710.1 629.6,709.6 630.1,708.9" fill="#E2B43A"/> <polygon points="637.2,710.4 637.2,696.1 641.6,696.1 641.6,710.4" fill="#E2B43A"/> <polygon points="641.6,710.4 641.4,709.6 640.9,708.9 640.2,708.4 639.4,708.2 638.5,708.4 637.8,708.9 637.3,709.6 637.2,710.4 637.3,711.3 637.8,712.0 638.5,712.5 639.4,712.7 640.2,712.5 640.9,712.0 641.4,711.3" fill="#E2B43A"/> <polygon points="641.6,696.1 641.4,695.2 640.9,694.5 640.2,694.0 639.4,693.9 638.5,694.0 637.8,694.5 637.3,695.2 637.2,696.1 637.3,696.9 637.8,697.6 638.5,698.1 639.4,698.3 640.2,698.1 640.9,697.6 641.4,696.9" fill="#E2B43A"/> <polygon points="649.3,710.4 649.3,696.1 653.7,696.1 653.7,710.4" fill="#E2B43A"/> <polygon points="653.7,710.4 653.5,709.6 653.1,708.9 652.3,708.4 651.5,708.2 650.6,708.4 649.9,708.9 649.4,709.6 649.3,710.4 649.4,711.3 649.9,712.0 650.6,712.5 651.5,712.7 652.3,712.5 653.1,712.0 653.5,711.3" fill="#E2B43A"/> <polygon points="653.7,696.1 653.5,695.2 653.1,694.5 652.3,694.0 651.5,693.9 650.6,694.0 649.9,694.5 649.4,695.2 649.3,696.1 649.4,696.9 649.9,697.6 650.6,698.1 651.5,698.3 652.3,698.1 653.1,697.6 653.5,696.9" fill="#E2B43A"/> <polygon points="639.4,701.1 651.5,701.1 651.5,705.5 639.4,705.5" fill="#E2B43A"/> <polygon points="641.6,703.3 641.4,702.4 640.9,701.7 640.2,701.2 639.4,701.1 638.5,701.2 637.8,701.7 637.3,702.4 637.2,703.3 637.3,704.1 637.8,704.8 638.5,705.3 639.4,705.5 640.2,705.3 640.9,704.8 641.4,704.1" fill="#E2B43A"/> <polygon points="653.7,703.3 653.5,702.4 653.1,701.7 652.3,701.2 651.5,701.1 650.6,701.2 649.9,701.7 649.4,702.4 649.3,703.3 649.4,704.1 649.9,704.8 650.6,705.3 651.5,705.5 652.3,705.3 653.1,704.8 653.5,704.1" fill="#E2B43A"/>
  <text x="540" y="1288" text-anchor="middle" fill="#1C1915" font-family="Georgia, serif" font-size="22">NFC Ø25 (pozo Ø28) centro del logo · pausa capa 24</text>
  <text x="540" y="1328" text-anchor="middle" fill="#7A6A52" font-family="Georgia, serif" font-size="16">Wordmark Instagram, logo cámara y TAP. Mismas medidas que la G.</text>
  <text x="540" y="1386" text-anchor="middle" fill="#7A6A52" font-family="Georgia, serif" font-size="14">Atril 76×86×8 mm · PLA negro + amarillo · NFCTap.tech</text>
</svg>
